<svg width="43" height="46" viewBox="0 0 43 46" fill="none" xmlns="http://www.w3.org/2000/svg">
<path d="M24.1637 4.33652C32.2887 4.33652 38.5341 10.7913 38.2661 18.9119C38.0737 24.7421 34.5755 29.7394 29.4999 32.0298L29.177 41.8161H14.5936L14.7998 35.5695H12.7164C10.4248 35.5695 8.6116 33.6955 8.68718 31.4051L8.89331 25.1585H5.76831C4.93497 25.1585 4.34433 24.1174 4.98994 23.4928L9.12005 18.2873C9.79781 10.3749 16.2471 4.33652 24.1637 4.33652ZM24.3012 0.172119C14.7178 0.172119 6.56755 7.2516 5.21668 16.6215L1.73906 20.9941C0.434093 22.6599 0.365383 24.7421 1.14375 26.4078C1.92898 27.8654 3.14463 28.9065 4.59609 29.1147L4.52051 31.4051C4.38996 35.3613 6.99523 38.4846 10.5025 39.5257L10.2895 45.9805H33.2062L33.5841 34.5284C38.9092 30.9887 42.2198 25.3667 42.4328 18.9119C42.7763 8.50092 34.7178 0.172119 24.3012 0.172119ZM25.4913 27.2407H21.3246L21.3933 25.1585H25.56L25.4913 27.2407ZM29.1338 17.8708C28.4813 18.7037 27.8288 19.5366 26.7665 20.1612L26.6703 23.0763H20.4204L20.5165 20.1612C17.6548 18.4955 16.7437 14.5393 18.5066 11.6242C20.2694 8.70914 24.2621 7.66804 27.1238 9.3338C29.9855 10.9996 30.8967 14.9557 29.1338 17.8708Z" fill="#24314D"/>
</svg>
