<svg width="52" height="51" viewBox="0 0 52 51" fill="none" xmlns="http://www.w3.org/2000/svg">
<path d="M39.9943 15.6932H11.8693C10.6264 15.6944 9.42262 16.1885 8.52204 17.0671C7.62145 17.9456 7.09767 19.1368 7.06563 20.3793L6.8333 29.7514C6.8136 30.5797 7.12342 31.3738 7.69477 31.9595C8.26613 32.5452 9.05234 32.8746 9.88086 32.8754L9.60982 43.8096C9.59011 44.6379 9.89993 45.432 10.4713 46.0177C11.0426 46.6034 11.8289 46.9328 12.6574 46.9336H18.9074C19.7359 46.9328 20.5385 46.6034 21.1389 46.0177C21.7393 45.432 22.0885 44.6379 22.1098 43.8096L22.5745 25.0653H19.4495L18.9848 43.8096H12.7348L13.0833 29.7514H9.9583L10.1906 20.3793C10.2009 19.965 10.3754 19.5677 10.6757 19.2747C10.9759 18.9818 11.3774 18.8172 11.7918 18.8172H39.9168C40.3312 18.8172 40.7246 18.9818 41.0104 19.2747C41.2961 19.5677 41.4509 19.965 41.4406 20.3793L41.2083 29.7514H38.0833L37.7348 43.8096H31.4848L31.9495 25.0653H28.8245L28.3598 43.8096C28.3401 44.6379 28.6499 45.432 29.2213 46.0177C29.7926 46.6034 30.5789 46.9328 31.4074 46.9336H37.6574C38.4859 46.9328 39.2885 46.6034 39.8889 46.0177C40.4893 45.432 40.8385 44.6379 40.8598 43.8096L41.1309 32.8754C41.9594 32.8746 42.762 32.5452 43.3624 31.9595C43.9628 31.3738 44.3119 30.5797 44.3333 29.7514L44.5656 20.3793C44.5952 19.1368 44.1305 17.9456 43.2734 17.0671C42.4164 16.1885 41.2371 15.6944 39.9943 15.6932V15.6932ZM16.5955 14.1312C15.3594 14.1312 14.1601 13.7647 13.1493 13.0782C12.1385 12.3916 11.3616 11.4158 10.9169 10.2741C10.4721 9.13244 10.3795 7.87616 10.6507 6.66415C10.9219 5.45214 11.5448 4.33884 12.4405 3.46503C13.3362 2.59122 14.4646 1.99615 15.683 1.75507C16.9013 1.51398 18.1549 1.63772 19.2853 2.11062C20.4156 2.58352 21.3718 3.38435 22.0331 4.41185C22.6944 5.43934 23.031 6.64734 23.0004 7.88309C22.9577 9.53968 22.2593 11.1279 21.0585 12.2993C19.8577 13.4707 18.2526 14.1295 16.5955 14.1312ZM16.8278 4.75905C16.2098 4.75905 15.601 4.94227 15.0786 5.28555C14.5562 5.62882 14.1436 6.11673 13.8929 6.68757C13.6422 7.25842 13.5648 7.88656 13.6703 8.49256C13.7759 9.09857 14.0597 9.65522 14.4859 10.0921C14.9121 10.529 15.4616 10.8266 16.0648 10.9471C16.668 11.0676 17.2978 11.0058 17.8747 10.7693C18.4516 10.5329 18.9496 10.1325 19.3057 9.61872C19.6618 9.10497 19.8601 8.50097 19.8754 7.88309C19.8951 7.0548 19.5853 6.26067 19.0139 5.67498C18.4426 5.08928 17.6564 4.75988 16.8278 4.75905V4.75905ZM35.3455 14.1312C34.1094 14.1312 32.9101 13.7647 31.8993 13.0782C30.8885 12.3916 30.1116 11.4158 29.6669 10.2741C29.2221 9.13244 29.1295 7.87616 29.4007 6.66415C29.6719 5.45214 30.2948 4.33884 31.1905 3.46503C32.0862 2.59122 33.2146 1.99615 34.433 1.75507C35.6513 1.51398 36.9049 1.63772 38.0353 2.11062C39.1656 2.58352 40.1218 3.38435 40.7831 4.41185C41.4444 5.43934 41.781 6.64734 41.7504 7.88309C41.7077 9.53968 41.0093 11.1279 39.8085 12.2993C38.6077 13.4707 37.0026 14.1295 35.3455 14.1312ZM35.5778 4.75905C34.9598 4.75905 34.351 4.94227 33.8286 5.28555C33.3062 5.62882 32.8936 6.11673 32.6429 6.68757C32.3922 7.25842 32.3148 7.88656 32.4203 8.49256C32.5259 9.09857 32.8097 9.65522 33.2359 10.0921C33.6621 10.529 34.2116 10.8266 34.8148 10.9471C35.418 11.0676 36.0479 11.0058 36.6247 10.7693C37.2016 10.5329 37.6996 10.1325 38.0557 9.61872C38.4118 9.10497 38.6101 8.50097 38.6254 7.88309C38.6451 7.0548 38.3353 6.26067 37.7639 5.67498C37.1926 5.08928 36.4064 4.75988 35.5778 4.75905V4.75905Z" fill="#24314D"/>
</svg>
