<?xml version="1.0" encoding="UTF-8"?>
<svg xmlns="http://www.w3.org/2000/svg" xmlns:xlink="http://www.w3.org/1999/xlink" width="251px" height="150px" viewBox="0 0 75 45" version="1.1">
<g id="surface1">
<path style=" stroke:none;fill-rule:nonzero;fill:rgb(13.72549%,18.431373%,24.313725%);fill-opacity:1;" d="M 21.136719 16.335938 C 21.109375 17.089844 21.207031 17.84375 21.417969 18.570312 C 21.636719 19.191406 21.90625 19.789062 22.226562 20.367188 C 22.332031 20.535156 22.394531 20.730469 22.402344 20.933594 C 22.371094 21.246094 22.195312 21.527344 21.921875 21.683594 L 20.351562 22.734375 C 20.15625 22.867188 19.929688 22.941406 19.695312 22.953125 C 19.40625 22.945312 19.136719 22.816406 18.945312 22.601562 C 18.597656 22.257812 18.296875 21.867188 18.050781 21.441406 C 17.804688 21.019531 17.550781 20.53125 17.289062 19.976562 C 15.335938 22.28125 12.894531 23.4375 9.957031 23.4375 C 7.859375 23.4375 6.203125 22.835938 4.980469 21.640625 C 3.757812 20.441406 3.148438 18.835938 3.148438 16.824219 C 3.148438 14.695312 3.902344 12.980469 5.417969 11.679688 C 6.929688 10.375 8.964844 9.726562 11.527344 9.730469 C 12.410156 9.730469 13.292969 9.796875 14.164062 9.925781 C 15.082031 10.054688 16.035156 10.238281 17.027344 10.472656 L 17.027344 8.636719 C 17.027344 6.738281 16.632812 5.402344 15.847656 4.632812 C 15.058594 3.859375 13.707031 3.472656 11.785156 3.464844 C 10.882812 3.464844 9.980469 3.574219 9.101562 3.789062 C 8.1875 4.007812 7.296875 4.296875 6.425781 4.648438 C 6.144531 4.777344 5.851562 4.886719 5.554688 4.972656 C 5.425781 5.011719 5.296875 5.035156 5.164062 5.042969 C 4.8125 5.042969 4.640625 4.777344 4.640625 4.253906 L 4.640625 3.027344 C 4.613281 2.726562 4.675781 2.421875 4.8125 2.152344 C 5 1.921875 5.238281 1.742188 5.511719 1.625 C 6.515625 1.140625 7.570312 0.757812 8.652344 0.488281 C 9.921875 0.160156 11.226562 -0.00390625 12.535156 0.00390625 C 15.503906 0.00390625 17.675781 0.679688 19.058594 2.039062 C 20.441406 3.398438 21.132812 5.449219 21.132812 8.191406 Z M 11.011719 20.144531 C 11.886719 20.132812 12.757812 19.980469 13.585938 19.683594 C 14.5 19.371094 15.3125 18.820312 15.941406 18.085938 C 16.34375 17.628906 16.636719 17.082031 16.792969 16.488281 C 16.96875 15.78125 17.050781 15.054688 17.042969 14.324219 L 17.042969 13.269531 C 16.285156 13.089844 15.519531 12.949219 14.75 12.855469 C 13.976562 12.753906 13.195312 12.703125 12.414062 12.703125 C 10.753906 12.703125 9.515625 13.035156 8.703125 13.703125 C 7.890625 14.371094 7.484375 15.332031 7.480469 16.59375 C 7.480469 17.761719 7.789062 18.644531 8.398438 19.242188 C 9.011719 19.839844 9.882812 20.140625 11.011719 20.144531 Z M 31.042969 22.859375 C 30.703125 22.882812 30.367188 22.796875 30.082031 22.609375 C 29.816406 22.339844 29.632812 21.996094 29.558594 21.625 L 23.710938 2.269531 C 23.601562 1.945312 23.527344 1.609375 23.492188 1.269531 C 23.46875 1.097656 23.523438 0.929688 23.644531 0.808594 C 23.765625 0.6875 23.933594 0.628906 24.105469 0.65625 L 26.546875 0.65625 C 26.894531 0.625 27.238281 0.714844 27.527344 0.90625 C 27.777344 1.183594 27.949219 1.523438 28.027344 1.890625 L 32.214844 18.445312 L 36.105469 1.894531 C 36.222656 1.394531 36.382812 1.070312 36.585938 0.910156 C 36.882812 0.722656 37.234375 0.632812 37.582031 0.660156 L 39.589844 0.660156 C 39.941406 0.636719 40.292969 0.722656 40.589844 0.910156 C 40.789062 1.078125 40.949219 1.40625 41.066406 1.894531 L 44.996094 18.660156 L 49.316406 1.894531 C 49.390625 1.527344 49.566406 1.1875 49.816406 0.910156 C 50.105469 0.71875 50.453125 0.628906 50.800781 0.660156 L 53.109375 0.660156 C 53.277344 0.636719 53.449219 0.691406 53.570312 0.8125 C 53.691406 0.933594 53.746094 1.105469 53.722656 1.273438 C 53.71875 1.40625 53.707031 1.535156 53.679688 1.667969 C 53.632812 1.875 53.574219 2.078125 53.503906 2.28125 L 47.480469 21.632812 C 47.40625 22.007812 47.222656 22.347656 46.957031 22.621094 C 46.675781 22.804688 46.335938 22.894531 46 22.871094 L 43.859375 22.871094 C 43.503906 22.902344 43.152344 22.808594 42.859375 22.609375 C 42.605469 22.328125 42.4375 21.980469 42.378906 21.605469 L 38.496094 5.496094 L 34.65625 21.605469 C 34.597656 21.980469 34.429688 22.328125 34.175781 22.609375 C 33.882812 22.808594 33.53125 22.902344 33.175781 22.871094 Z M 63.078125 23.519531 C 61.785156 23.519531 60.496094 23.371094 59.234375 23.082031 C 58.234375 22.878906 57.265625 22.542969 56.355469 22.078125 C 55.773438 21.855469 55.402344 21.285156 55.429688 20.660156 L 55.429688 19.410156 C 55.429688 18.886719 55.617188 18.625 55.996094 18.625 C 56.152344 18.625 56.308594 18.65625 56.457031 18.710938 C 56.613281 18.769531 56.828125 18.855469 57.089844 18.960938 C 57.96875 19.355469 58.886719 19.648438 59.832031 19.835938 C 60.808594 20.042969 61.800781 20.144531 62.800781 20.144531 C 64.371094 20.144531 65.585938 19.867188 66.441406 19.316406 C 67.269531 18.820312 67.761719 17.914062 67.734375 16.949219 C 67.75 16.296875 67.507812 15.667969 67.054688 15.199219 C 66.605469 14.730469 65.765625 14.292969 64.546875 13.886719 L 60.925781 12.746094 C 59.09375 12.160156 57.765625 11.3125 56.933594 10.203125 C 56.128906 9.164062 55.6875 7.886719 55.6875 6.570312 C 55.667969 5.601562 55.898438 4.640625 56.363281 3.789062 C 56.8125 2.988281 57.421875 2.289062 58.152344 1.730469 C 58.929688 1.144531 59.8125 0.707031 60.75 0.441406 C 61.769531 0.144531 62.828125 -0.00390625 63.890625 0.00390625 C 64.453125 0.00390625 65.015625 0.0390625 65.570312 0.113281 C 66.140625 0.1875 66.679688 0.28125 67.1875 0.398438 C 67.683594 0.511719 68.167969 0.648438 68.605469 0.789062 C 68.964844 0.90625 69.316406 1.050781 69.652344 1.226562 C 69.941406 1.378906 70.195312 1.589844 70.402344 1.839844 C 70.558594 2.089844 70.636719 2.378906 70.621094 2.675781 L 70.621094 3.855469 C 70.621094 4.382812 70.429688 4.644531 70.050781 4.644531 C 69.714844 4.605469 69.390625 4.5 69.09375 4.339844 C 67.578125 3.679688 65.941406 3.347656 64.292969 3.375 C 62.863281 3.375 61.757812 3.609375 60.972656 4.074219 C 60.1875 4.539062 59.796875 5.285156 59.796875 6.308594 C 59.785156 6.980469 60.058594 7.621094 60.546875 8.082031 C 61.042969 8.5625 61.957031 9.023438 63.289062 9.460938 L 66.824219 10.597656 C 68.625 11.183594 69.914062 11.988281 70.683594 13.007812 C 71.449219 14.015625 71.859375 15.246094 71.84375 16.511719 C 71.859375 17.519531 71.632812 18.519531 71.1875 19.421875 C 70.75 20.285156 70.132812 21.039062 69.375 21.632812 C 68.550781 22.273438 67.609375 22.75 66.605469 23.035156 C 65.457031 23.367188 64.269531 23.527344 63.078125 23.519531 Z M 63.078125 23.519531 "/>
<path style=" stroke:none;fill-rule:evenodd;fill:rgb(100%,60%,0%);fill-opacity:1;" d="M 67.796875 35.6875 C 59.582031 41.765625 47.679688 44.996094 37.425781 44.996094 C 23.0625 44.996094 10.121094 39.671875 0.335938 30.800781 C -0.4375 30.105469 0.25 29.152344 1.175781 29.691406 C 11.738281 35.859375 24.800781 39.574219 38.289062 39.574219 C 48.015625 39.527344 57.636719 37.550781 66.601562 33.761719 C 67.988281 33.171875 69.148438 34.671875 67.796875 35.6875 Z M 67.796875 35.6875 "/>
<path style=" stroke:none;fill-rule:evenodd;fill:rgb(100%,60%,0%);fill-opacity:1;" d="M 71.210938 31.769531 C 70.160156 30.421875 64.269531 31.132812 61.621094 31.449219 C 60.820312 31.546875 60.695312 30.84375 61.417969 30.335938 C 66.117188 27.023438 73.820312 27.980469 74.714844 29.082031 C 75.609375 30.1875 74.480469 37.949219 70.074219 41.644531 C 69.394531 42.214844 68.75 41.910156 69.050781 41.160156 C 70.042969 38.675781 72.261719 33.121094 71.210938 31.769531 Z M 71.210938 31.769531 "/>
</g>
</svg>
