<?xml version="1.0" encoding="UTF-8"?>
<svg xmlns="http://www.w3.org/2000/svg" xmlns:xlink="http://www.w3.org/1999/xlink" width="400px" height="107px" viewBox="0 0 401 107" version="1.1">
<g id="surface1">
<path style=" stroke:none;fill-rule:nonzero;fill:rgb(32.941176%,25.882353%,89.803922%);fill-opacity:1;" d="M 56.003906 0.179688 C 27.992188 0.179688 0.53125 27.738281 0.53125 55.875 C 0.53125 84.007812 23.246094 106.820312 51.28125 106.820312 C 79.296875 106.820312 106.753906 79.261719 106.753906 51.125 C 106.753906 22.992188 84.039062 0.179688 56.003906 0.179688 Z M 9.902344 51.125 C 9.902344 25.933594 30.246094 5.511719 55.335938 5.511719 C 80.429688 5.511719 100.765625 25.933594 100.765625 51.125 C 100.765625 76.3125 80.429688 96.730469 55.335938 96.730469 C 30.246094 96.730469 9.902344 76.3125 9.902344 51.125 Z M 9.902344 51.125 "/>
<path style=" stroke:none;fill-rule:nonzero;fill:rgb(32.941176%,25.882353%,89.803922%);fill-opacity:1;" d="M 84.332031 41.417969 C 68.4375 40.613281 54.140625 30.097656 46.996094 22.015625 C 46.207031 27.671875 47.886719 41.351562 28.035156 56.71875 C 52.664062 59.148438 59.011719 68.847656 66.160156 76.9375 C 66.160156 58.820312 76.382812 47.074219 84.332031 41.417969 Z M 84.332031 41.417969 "/>
<path style=" stroke:none;fill-rule:nonzero;fill:rgb(27.45098%,20.392157%,86.666667%);fill-opacity:1;" d="M 153.582031 81.757812 L 153.582031 24.15625 L 174.453125 24.15625 C 178.308594 24.15625 181.691406 24.882812 184.621094 26.324219 C 187.542969 27.714844 189.832031 29.78125 191.472656 32.515625 C 193.167969 35.1875 194.015625 38.410156 194.015625 42.179688 C 194.015625 46.140625 193.011719 49.542969 191.011719 52.386719 C 189.054688 55.21875 186.414062 57.273438 183.082031 58.566406 L 196.332031 81.757812 L 186.007812 81.757812 L 171.917969 56.632812 L 177.839844 60.113281 L 162.671875 60.113281 L 162.671875 81.757812 Z M 162.671875 51.988281 L 174.605469 51.988281 C 176.710938 51.988281 178.539062 51.582031 180.074219 50.761719 C 181.621094 49.933594 182.800781 48.804688 183.617188 47.351562 C 184.492188 45.859375 184.925781 44.109375 184.925781 42.097656 C 184.925781 40.085938 184.492188 38.363281 183.617188 36.921875 C 182.800781 35.421875 181.621094 34.285156 180.074219 33.515625 C 178.539062 32.6875 176.710938 32.28125 174.605469 32.28125 L 162.671875 32.28125 Z M 217.273438 82.6875 C 213.113281 82.6875 209.417969 81.734375 206.183594 79.828125 C 203.003906 77.871094 200.511719 75.234375 198.710938 71.9375 C 196.917969 68.589844 196.023438 64.855469 196.023438 60.734375 C 196.023438 56.511719 196.917969 52.765625 198.710938 49.515625 C 200.566406 46.265625 203.027344 43.722656 206.109375 41.867188 C 209.195312 39.960938 212.683594 39.003906 216.574219 39.003906 C 219.714844 39.003906 222.507812 39.542969 224.96875 40.628906 C 227.441406 41.710938 229.511719 43.199219 231.214844 45.109375 C 232.910156 46.96875 234.191406 49.109375 235.054688 51.53125 C 235.984375 53.949219 236.445312 56.53125 236.445312 59.265625 C 236.445312 59.929688 236.421875 60.625 236.371094 61.347656 C 236.320312 62.070312 236.214844 62.738281 236.0625 63.355469 L 202.878906 63.355469 L 202.878906 56.402344 L 231.136719 56.402344 L 226.976562 59.570312 C 227.492188 57.039062 227.316406 54.800781 226.4375 52.84375 C 225.621094 50.832031 224.328125 49.261719 222.585938 48.125 C 220.894531 46.945312 218.890625 46.351562 216.574219 46.351562 C 214.269531 46.351562 212.214844 46.945312 210.417969 48.125 C 208.628906 49.261719 207.238281 50.90625 206.253906 53.074219 C 205.28125 55.191406 204.902344 57.765625 205.101562 60.804688 C 204.84375 63.636719 205.234375 66.113281 206.253906 68.230469 C 207.339844 70.34375 208.832031 71.996094 210.726562 73.179688 C 212.683594 74.359375 214.890625 74.953125 217.351562 74.953125 C 219.871094 74.953125 222.003906 74.386719 223.742188 73.257812 C 225.535156 72.121094 226.953125 70.652344 227.980469 68.847656 L 235.054688 72.328125 C 234.246094 74.289062 232.957031 76.0625 231.214844 77.660156 C 229.511719 79.214844 227.46875 80.441406 225.050781 81.378906 C 222.683594 82.253906 220.09375 82.6875 217.273438 82.6875 Z M 257.265625 82.6875 C 253.003906 82.6875 249.25 81.636719 246.023438 79.519531 C 242.835938 77.402344 240.605469 74.570312 239.328125 71.011719 L 246.023438 67.847656 C 247.152344 70.214844 248.683594 72.09375 250.640625 73.484375 C 252.648438 74.882812 254.851562 75.578125 257.265625 75.578125 C 259.320312 75.578125 260.984375 75.109375 262.277344 74.1875 C 263.558594 73.257812 264.195312 71.996094 264.195312 70.398438 C 264.195312 69.359375 263.917969 68.539062 263.347656 67.925781 C 262.78125 67.246094 262.070312 66.707031 261.195312 66.300781 C 260.367188 65.886719 259.527344 65.570312 258.65625 65.371094 L 252.109375 63.511719 C 248.511719 62.484375 245.816406 60.941406 244.015625 58.875 C 242.273438 56.757812 241.398438 54.316406 241.398438 51.53125 C 241.398438 49 242.039062 46.808594 243.328125 44.960938 C 244.609375 43.054688 246.382812 41.574219 248.636719 40.554688 C 250.902344 39.519531 253.445312 39.003906 256.265625 39.003906 C 260.058594 39.003906 263.457031 39.960938 266.425781 41.867188 C 269.40625 43.722656 271.519531 46.324219 272.742188 49.679688 L 266.050781 52.84375 C 265.226562 50.832031 263.917969 49.234375 262.117188 48.054688 C 260.367188 46.867188 258.394531 46.265625 256.183594 46.265625 C 254.289062 46.265625 252.78125 46.734375 251.648438 47.667969 C 250.515625 48.542969 249.949219 49.699219 249.949219 51.140625 C 249.949219 52.125 250.207031 52.949219 250.71875 53.613281 C 251.234375 54.234375 251.90625 54.75 252.722656 55.167969 C 253.542969 55.527344 254.386719 55.832031 255.261719 56.09375 L 262.042969 58.097656 C 265.488281 59.082031 268.125 60.625 269.972656 62.738281 C 271.824219 64.804688 272.742188 67.277344 272.742188 70.164062 C 272.742188 72.636719 272.085938 74.828125 270.742188 76.734375 C 269.464844 78.59375 267.65625 80.0625 265.351562 81.144531 C 263.042969 82.171875 260.347656 82.6875 257.265625 82.6875 Z M 278.191406 97.226562 L 278.191406 39.933594 L 286.507812 39.933594 L 286.507812 48.59375 L 285.507812 46.585938 C 287.046875 44.210938 289.097656 42.351562 291.664062 41.011719 C 294.234375 39.679688 297.164062 39.003906 300.449219 39.003906 C 304.402344 39.003906 307.945312 39.960938 311.074219 41.867188 C 314.265625 43.769531 316.742188 46.375 318.546875 49.679688 C 320.394531 52.972656 321.320312 56.679688 321.320312 60.804688 C 321.320312 64.929688 320.394531 68.636719 318.546875 71.9375 C 316.742188 75.234375 314.285156 77.871094 311.152344 79.828125 C 308.019531 81.734375 304.457031 82.6875 300.449219 82.6875 C 297.210938 82.6875 294.261719 82.019531 291.589844 80.675781 C 288.980469 79.339844 286.945312 77.402344 285.507812 74.882812 L 286.898438 73.257812 L 286.898438 97.226562 Z M 299.601562 74.570312 C 302.066406 74.570312 304.246094 73.980469 306.152344 72.796875 C 308.046875 71.605469 309.535156 69.980469 310.613281 67.925781 C 311.742188 65.804688 312.308594 63.441406 312.308594 60.804688 C 312.308594 58.179688 311.742188 55.832031 310.613281 53.777344 C 309.535156 51.707031 308.046875 50.085938 306.152344 48.902344 C 304.246094 47.71875 302.066406 47.125 299.601562 47.125 C 297.191406 47.125 295.011719 47.71875 293.054688 48.902344 C 291.152344 50.085938 289.640625 51.707031 288.511719 53.777344 C 287.429688 55.832031 286.898438 58.179688 286.898438 60.804688 C 286.898438 63.441406 287.429688 65.804688 288.511719 67.925781 C 289.640625 69.980469 291.152344 71.605469 293.054688 72.796875 C 295.011719 73.980469 297.191406 74.570312 299.601562 74.570312 Z M 346.265625 82.6875 C 342.105469 82.6875 338.410156 81.734375 335.175781 79.828125 C 331.996094 77.871094 329.496094 75.234375 327.710938 71.9375 C 325.910156 68.589844 325.007812 64.855469 325.007812 60.734375 C 325.007812 56.511719 325.910156 52.765625 327.710938 49.515625 C 329.550781 46.265625 332.019531 43.722656 335.089844 41.867188 C 338.175781 39.960938 341.664062 39.003906 345.570312 39.003906 C 348.703125 39.003906 351.5 39.542969 353.960938 40.628906 C 356.433594 41.710938 358.515625 43.199219 360.199219 45.109375 C 361.902344 46.96875 363.183594 49.109375 364.058594 51.53125 C 364.976562 53.949219 365.445312 56.53125 365.445312 59.265625 C 365.445312 59.929688 365.421875 60.625 365.367188 61.347656 C 365.3125 62.070312 365.210938 62.738281 365.0625 63.355469 L 331.859375 63.355469 L 331.859375 56.402344 L 360.117188 56.402344 L 355.96875 59.570312 C 356.484375 57.039062 356.304688 54.800781 355.429688 52.84375 C 354.601562 50.832031 353.332031 49.261719 351.582031 48.125 C 349.886719 46.945312 347.878906 46.351562 345.570312 46.351562 C 343.261719 46.351562 341.214844 46.945312 339.410156 48.125 C 337.609375 49.261719 336.21875 50.90625 335.246094 53.074219 C 334.285156 55.191406 333.894531 57.765625 334.101562 60.804688 C 333.84375 63.636719 334.226562 66.113281 335.246094 68.230469 C 336.328125 70.34375 337.816406 71.996094 339.722656 73.179688 C 341.664062 74.359375 343.875 74.953125 346.347656 74.953125 C 348.851562 74.953125 350.988281 74.386719 352.738281 73.257812 C 354.527344 72.121094 355.945312 70.652344 356.964844 68.847656 L 364.058594 72.328125 C 363.230469 74.289062 361.949219 76.0625 360.199219 77.660156 C 358.515625 79.214844 356.457031 80.441406 354.039062 81.378906 C 351.679688 82.253906 349.085938 82.6875 346.265625 82.6875 Z M 370.851562 81.757812 L 370.851562 23.230469 L 379.558594 23.230469 L 379.558594 81.757812 Z M 386.648438 81.757812 L 386.648438 23.230469 L 395.347656 23.230469 L 395.347656 81.757812 Z M 386.648438 81.757812 "/>
</g>
</svg>
